<?xml version="1.0" encoding="UTF-8" standalone="no"?>
<svg width="256" height="256" viewBox="0 0 256 256" fill="none" xmlns="http://www.w3.org/2000/svg">
  <circle cx="128" cy="128" r="120" fill="#4CAF50"/>
  <path d="M128 48C83.8172 48 48 83.8172 48 128C48 172.183 83.8172 208 128 208C172.183 208 208 172.183 208 128C208 83.8172 172.183 48 128 48ZM128 188C94.8629 188 68 161.137 68 128C68 94.8629 94.8629 68 128 68C161.137 68 188 94.8629 188 128C188 161.137 161.137 188 128 188Z" fill="white"/>
  <circle cx="128" cy="128" r="40" fill="white"/>
</svg> 